HIERARCHY
ROOT SpineBase
{
  OFFSET 0.000000 0.000000 0.000000
  CHANNELS 6 Xposition Yposition Zposition Zrotation Xrotation Yrotation
  JOINT SpineMid
  {
    OFFSET 0.000000 28.014098 0.000000
    CHANNELS 3 Zrotation Xrotation Yrotation
    JOINT SpineShoulder
    {
      OFFSET -0.070459 20.760351 -0.534742
      CHANNELS 3 Zrotation Xrotation Yrotation
      JOINT Neck
      {
        OFFSET -0.041534 6.870629 -0.432241
        CHANNELS 3 Zrotation Xrotation Yrotation
        JOINT Head
        {
          OFFSET 0.778321 12.235794 0.927831
          CHANNELS 3 Zrotation Xrotation Yrotation
          End Site
          {
            OFFSET 0 0 0
          }
        }
      }
      JOINT ShoulderLeft
      {
        OFFSET -11.592250 -3.632274 -8.945782
        CHANNELS 3 Zrotation Xrotation Yrotation
        JOINT ElbowLeft
        {
          OFFSET -4.033394 -21.952861 -2.905867
          CHANNELS 3 Zrotation Xrotation Yrotation
          JOINT WristLeft
          {
            OFFSET 3.072830 -16.381066 -4.219292
            CHANNELS 3 Zrotation Xrotation Yrotation
            JOINT HandLeft
            {
              OFFSET 1.474650 -7.175159 -0.913389
              CHANNELS 3 Zrotation Xrotation Yrotation
              JOINT HandTipLeft
              {
                OFFSET 0.701687 -5.736809 -1.727059
                CHANNELS 3 Zrotation Xrotation Yrotation
                End Site
                {
                  OFFSET 0 0 0
                }
              }
              JOINT ThumbLeft
              {
                OFFSET -2.432011 -0.516706 -1.336985
                CHANNELS 3 Zrotation Xrotation Yrotation
                End Site
                {
                  OFFSET 0 0 0
                }
              }
            }
          }
        }
      }
      JOINT ShoulderRight
      {
        OFFSET 11.629865 -3.555289 4.724036
        CHANNELS 3 Zrotation Xrotation Yrotation
        JOINT ElbowRight
        {
          OFFSET 2.102643 -22.121715 0.763789
          CHANNELS 3 Zrotation Xrotation Yrotation
          JOINT WristRight
          {
            OFFSET 3.185597 -22.032895 -1.708750
            CHANNELS 3 Zrotation Xrotation Yrotation
            JOINT HandRight
            {
              OFFSET 0.671626 -7.735215 -0.477730
              CHANNELS 3 Zrotation Xrotation Yrotation
              JOINT HandTipRight
              {
                OFFSET -0.093642 -5.850650 0.176906
                CHANNELS 3 Zrotation Xrotation Yrotation
                End Site
                {
                  OFFSET 0 0 0
                }
              }
              JOINT ThumbRight
              {
                OFFSET 1.321736 -0.040955 -1.295349
                CHANNELS 3 Zrotation Xrotation Yrotation
                End Site
                {
                  OFFSET 0 0 0
                }
              }
            }
          }
        }
      }
    }
  }
  JOINT HipLeft
  {
    OFFSET -5.166537 0.411219 -5.059747
    CHANNELS 3 Zrotation Xrotation Yrotation
    JOINT KneeLeft
    {
      OFFSET -6.207022 -32.438108 2.272622
      CHANNELS 3 Zrotation Xrotation Yrotation
      JOINT AnkleLeft
      {
        OFFSET -4.455184 -28.041814 6.302890
        CHANNELS 3 Zrotation Xrotation Yrotation
        JOINT FootLeft
        {
          OFFSET 3.820907 -6.080271 3.476737
          CHANNELS 3 Zrotation Xrotation Yrotation
          End Site
          {
            OFFSET 0 0 0
          }
        }
      }
    }
  }
  JOINT HipRight
  {
    OFFSET 4.682690 0.827708 -0.894253
    CHANNELS 3 Zrotation Xrotation Yrotation
    JOINT KneeRight
    {
      OFFSET -4.952048 -31.847018 3.928541
      CHANNELS 3 Zrotation Xrotation Yrotation
      JOINT AnkleRight
      {
        OFFSET -1.224317 -28.885784 8.599451
        CHANNELS 3 Zrotation Xrotation Yrotation
        JOINT FootRight
        {
          OFFSET -3.783047 -6.884206 -5.730305
          CHANNELS 3 Zrotation Xrotation Yrotation
          End Site
          {
            OFFSET 0 0 0
          }
        }
      }
    }
  }
}
MOTION
Frames: 6
Frame Time: 0.033333
25.407040 69.970894 354.392046 -3.833296 2.629145 -21.033364 0.922552 -0.767701 21.027571 0.129227 0.149926 -0.101726 11.310719 -2.094074 -0.091289 0.000000 0.000000 0.000000 17.036873 12.612110 -5.636017 96.910009 5.400981 -17.050103 -4.304511 7.482512 8.990001 -13.382343 17.295466 -35.161774 0.000000 0.000000 0.000000 0.000000 0.000000 0.000000 5.982944 7.963063 1.098870 -138.457165 52.631724 126.057689 21.540121 28.572863 51.411178 -4.801810 -17.727621 -17.904611 0.000000 0.000000 0.000000 0.000000 0.000000 0.000000 9.490665 -1.716761 22.056725 3.946925 6.088173 -0.021738 -13.266121 43.239307 37.588071 0.000000 0.000000 0.000000 11.430755 -0.111556 22.331393 -10.247438 2.563638 -1.939351 -0.534999 -1.585466 4.786411 0.000000 0.000000 0.000000
25.268291 69.839205 354.276666 -3.968077 2.844509 -21.118485 0.961380 -0.808506 21.119971 0.196164 0.187340 -0.098831 11.729262 -2.204014 -0.081424 0.000000 0.000000 0.000000 17.445865 12.271026 -5.621585 96.284332 5.966403 -17.654988 -4.198760 8.180561 8.338072 -17.157347 16.139354 -33.266040 0.000000 0.000000 0.000000 0.000000 0.000000 0.000000 7.111492 4.677722 0.908544 -143.654707 50.605053 132.695937 28.113834 27.475534 59.961958 -12.046260 -11.230761 -31.477513 0.000000 0.000000 0.000000 0.000000 0.000000 0.000000 9.752462 -3.283920 22.462809 4.803482 8.385550 -0.607701 -21.165222 46.171726 43.037572 0.000000 0.000000 0.000000 11.733704 -0.262051 22.473333 -10.211343 2.517559 -1.917166 -0.702953 -2.402228 5.288160 0.000000 0.000000 0.000000
25.175023 69.683631 354.248875 -4.043330 2.931992 -21.382201 0.896967 -0.721098 21.387853 0.214388 0.231161 -0.098931 12.339135 -2.318484 -0.069502 0.000000 0.000000 0.000000 18.227444 12.077084 -5.724362 96.008350 6.415233 -18.102140 -2.950609 9.945571 6.926647 -20.616430 9.464715 -28.999443 0.000000 0.000000 0.000000 0.000000 0.000000 0.000000 8.532640 0.377175 0.754106 -146.988019 47.509732 135.459809 37.351273 29.803899 74.275458 -19.282014 4.943962 -58.781605 0.000000 0.000000 0.000000 0.000000 0.000000 0.000000 9.623053 -5.317776 23.083272 8.174397 11.255870 -1.256484 -32.999923 50.619958 52.623776 0.000000 0.000000 0.000000 11.856488 -0.089026 22.722588 -10.191608 2.290799 -1.891748 -1.096597 -1.465466 5.001018 0.000000 0.000000 0.000000
25.065866 69.408787 354.237571 -4.168184 2.989420 -21.715997 0.845944 -0.583911 21.727346 0.194537 0.272780 -0.102604 13.231233 -2.341364 -0.070259 0.000000 0.000000 0.000000 18.796995 11.593037 -5.662347 95.544964 6.793074 -18.741616 -1.802826 13.005838 4.181049 -17.801452 -1.027101 -23.338942 0.000000 0.000000 0.000000 0.000000 0.000000 0.000000 9.348445 -0.592269 0.797762 -147.946361 46.824332 135.754514 50.395325 36.107527 95.739366 -17.057422 28.726092 -94.734298 0.000000 0.000000 0.000000 0.000000 0.000000 0.000000 9.607510 -6.567975 23.632702 11.106320 12.000485 -1.446428 -43.381868 54.231737 61.182008 0.000000 0.000000 0.000000 12.077145 0.121916 23.048957 -10.215134 2.146879 -1.872172 -0.985355 -1.238676 4.690445 0.000000 0.000000 0.000000
25.013106 69.155755 354.254382 -4.212918 3.000301 -21.577470 0.761524 -0.458229 21.592160 0.161554 0.284901 -0.106740 14.106486 -2.159331 -0.107119 0.000000 0.000000 0.000000 19.092940 11.154598 -5.558714 94.848445 7.444894 -19.518560 -0.513917 12.379118 4.899761 -16.660781 -2.775032 -22.158217 0.000000 0.000000 0.000000 0.000000 0.000000 0.000000 9.869923 1.209173 0.933226 -147.479995 48.218157 134.325390 62.992131 40.648575 110.491501 -3.667421 42.860163 -118.477399 0.000000 0.000000 0.000000 0.000000 0.000000 0.000000 9.670015 -7.292465 23.637985 12.282542 13.060849 -1.809814 -34.911774 47.982652 45.768529 0.000000 0.000000 0.000000 12.040582 0.150380 22.891105 -9.954212 1.957148 -1.805804 -1.287208 -1.574283 4.938783 0.000000 0.000000 0.000000
24.937374 68.958300 354.286905 -4.332091 3.019469 -21.445653 0.664044 -0.324654 21.463929 0.096725 0.306645 -0.116042 15.292568 -2.106013 -0.117145 0.000000 0.000000 0.000000 19.352256 10.922903 -5.476221 94.270415 7.857798 -19.757244 0.290852 5.877714 11.121180 -15.909548 -2.428702 -20.293791 0.000000 0.000000 0.000000 0.000000 0.000000 0.000000 10.544464 1.770328 1.029095 -147.841503 48.434828 133.954249 64.620600 40.102885 111.309507 0.622527 37.859907 -107.209681 0.000000 0.000000 0.000000 0.000000 0.000000 0.000000 9.676320 -7.731871 23.572755 12.920164 13.360122 -1.942882 -29.324681 47.051499 43.483135 0.000000 0.000000 0.000000 12.044196 0.232961 22.728523 -9.675316 1.698865 -1.733606 -1.643243 -2.475104 5.553974 0.000000 0.000000 0.000000
